<svg width="25" height="15" viewBox="0 0 25 15" fill="none" xmlns="http://www.w3.org/2000/svg">
<path fill-rule="evenodd" clip-rule="evenodd" d="M17.5 2.5C14.7386 2.5 12.5 4.73857 12.5 7.5C12.5 10.2614 14.7386 12.5 17.5 12.5C20.2614 12.5 22.5 10.2614 22.5 7.5C22.5 4.73857 20.2614 2.5 17.5 2.5ZM11.9097 12.5C10.7221 11.1731 10 9.42087 10 7.5C10 5.57912 10.7221 3.82689 11.9097 2.5H7.5C4.73857 2.5 2.5 4.73857 2.5 7.5C2.5 10.2614 4.73857 12.5 7.5 12.5H11.9097ZM0 7.5C0 3.35786 3.35786 0 7.5 0H17.5C21.6421 0 25 3.35786 25 7.5C25 11.6421 21.6421 15 17.5 15H7.5C3.35786 15 0 11.6421 0 7.5Z" fill="#053259"/>
</svg>
